<mxfile host="Electron" modified="2023-12-09T14:29:03.459Z" agent="Mozilla/5.0 (X11; Linux x86_64) AppleWebKit/537.36 (KHTML, like Gecko) draw.io/21.6.5 Chrome/114.0.5735.243 Electron/25.3.1 Safari/537.36" etag="2lLqSe1aZprvv9OIJYjP" version="21.6.5" type="device">
  <diagram name="第 1 页" id="R-oRWh5QkGJPuEaVgRiS">
    <mxGraphModel dx="1231" dy="764" grid="1" gridSize="10" guides="1" tooltips="1" connect="1" arrows="1" fold="1" page="1" pageScale="1" pageWidth="827" pageHeight="1169" math="0" shadow="0">
      <root>
        <mxCell id="0" />
        <mxCell id="1" parent="0" />
        <mxCell id="O0mWFL73iazBkssLHJQz-1" value="&lt;h1 style=&quot;font-size: 16px;&quot;&gt;&lt;font style=&quot;font-size: 16px;&quot;&gt;验证码工作流程&lt;/font&gt;&lt;/h1&gt;&lt;p style=&quot;&quot;&gt;&lt;font style=&quot;font-size: 12px;&quot;&gt;现在流行的新型验证码（如：滑块拼图、文字点选&lt;/font&gt;&lt;font style=&quot;font-size: 12px;&quot;&gt;）工作流程，以captcha-plus v1.0.8 为例。&lt;br&gt;&lt;/font&gt;&lt;/p&gt;" style="text;html=1;strokeColor=none;fillColor=none;spacing=5;spacingTop=-20;whiteSpace=wrap;overflow=hidden;rounded=0;" vertex="1" parent="1">
          <mxGeometry x="40" y="20" width="560" height="60" as="geometry" />
        </mxCell>
        <mxCell id="O0mWFL73iazBkssLHJQz-7" style="edgeStyle=orthogonalEdgeStyle;rounded=0;orthogonalLoop=1;jettySize=auto;html=1;exitX=0.5;exitY=1;exitDx=0;exitDy=0;entryX=0.5;entryY=0;entryDx=0;entryDy=0;" edge="1" parent="1" source="O0mWFL73iazBkssLHJQz-2" target="O0mWFL73iazBkssLHJQz-3">
          <mxGeometry relative="1" as="geometry" />
        </mxCell>
        <mxCell id="O0mWFL73iazBkssLHJQz-10" value="" style="edgeStyle=orthogonalEdgeStyle;rounded=0;orthogonalLoop=1;jettySize=auto;html=1;" edge="1" parent="1" source="O0mWFL73iazBkssLHJQz-2" target="O0mWFL73iazBkssLHJQz-9">
          <mxGeometry relative="1" as="geometry" />
        </mxCell>
        <mxCell id="O0mWFL73iazBkssLHJQz-2" value="请求生成验证码&lt;br&gt;get()" style="rounded=1;whiteSpace=wrap;html=1;fillColor=#d5e8d4;strokeColor=#82b366;" vertex="1" parent="1">
          <mxGeometry x="40" y="120" width="160" height="60" as="geometry" />
        </mxCell>
        <mxCell id="O0mWFL73iazBkssLHJQz-8" style="edgeStyle=orthogonalEdgeStyle;rounded=0;orthogonalLoop=1;jettySize=auto;html=1;exitX=0.5;exitY=1;exitDx=0;exitDy=0;entryX=0.5;entryY=0;entryDx=0;entryDy=0;" edge="1" parent="1" source="O0mWFL73iazBkssLHJQz-3" target="O0mWFL73iazBkssLHJQz-6">
          <mxGeometry relative="1" as="geometry" />
        </mxCell>
        <mxCell id="O0mWFL73iazBkssLHJQz-3" value="用户操作" style="rounded=1;whiteSpace=wrap;html=1;" vertex="1" parent="1">
          <mxGeometry x="40" y="400" width="160" height="60" as="geometry" />
        </mxCell>
        <mxCell id="O0mWFL73iazBkssLHJQz-18" value="" style="edgeStyle=orthogonalEdgeStyle;rounded=0;orthogonalLoop=1;jettySize=auto;html=1;" edge="1" parent="1" source="O0mWFL73iazBkssLHJQz-6" target="O0mWFL73iazBkssLHJQz-34">
          <mxGeometry relative="1" as="geometry">
            <mxPoint x="240" y="530" as="targetPoint" />
          </mxGeometry>
        </mxCell>
        <mxCell id="O0mWFL73iazBkssLHJQz-53" value="" style="edgeStyle=orthogonalEdgeStyle;rounded=0;orthogonalLoop=1;jettySize=auto;html=1;" edge="1" parent="1" source="O0mWFL73iazBkssLHJQz-6" target="O0mWFL73iazBkssLHJQz-52">
          <mxGeometry relative="1" as="geometry" />
        </mxCell>
        <mxCell id="O0mWFL73iazBkssLHJQz-6" value="上报操作数据&lt;br&gt;进行核对&lt;br&gt;check()" style="rounded=1;whiteSpace=wrap;html=1;fillColor=#d5e8d4;strokeColor=#82b366;" vertex="1" parent="1">
          <mxGeometry x="40" y="500" width="160" height="60" as="geometry" />
        </mxCell>
        <mxCell id="O0mWFL73iazBkssLHJQz-12" value="" style="edgeStyle=orthogonalEdgeStyle;rounded=0;orthogonalLoop=1;jettySize=auto;html=1;" edge="1" parent="1" source="O0mWFL73iazBkssLHJQz-9" target="O0mWFL73iazBkssLHJQz-11">
          <mxGeometry relative="1" as="geometry" />
        </mxCell>
        <mxCell id="O0mWFL73iazBkssLHJQz-9" value="从请求头获取用户客户端IP和&lt;br&gt;user-agent 信息&lt;br&gt;（仅用于次数限制校验）" style="rounded=1;whiteSpace=wrap;html=1;" vertex="1" parent="1">
          <mxGeometry x="240" y="120" width="160" height="60" as="geometry" />
        </mxCell>
        <mxCell id="O0mWFL73iazBkssLHJQz-14" value="" style="edgeStyle=orthogonalEdgeStyle;rounded=0;orthogonalLoop=1;jettySize=auto;html=1;" edge="1" parent="1" source="O0mWFL73iazBkssLHJQz-11" target="O0mWFL73iazBkssLHJQz-13">
          <mxGeometry relative="1" as="geometry" />
        </mxCell>
        <mxCell id="O0mWFL73iazBkssLHJQz-11" value="从请求传参的获取验证码类型" style="rounded=1;whiteSpace=wrap;html=1;" vertex="1" parent="1">
          <mxGeometry x="440" y="120" width="160" height="60" as="geometry" />
        </mxCell>
        <mxCell id="O0mWFL73iazBkssLHJQz-16" value="" style="edgeStyle=orthogonalEdgeStyle;rounded=0;orthogonalLoop=1;jettySize=auto;html=1;" edge="1" parent="1" source="O0mWFL73iazBkssLHJQz-13" target="O0mWFL73iazBkssLHJQz-15">
          <mxGeometry relative="1" as="geometry">
            <Array as="points">
              <mxPoint x="720" y="200" />
              <mxPoint x="320" y="200" />
            </Array>
          </mxGeometry>
        </mxCell>
        <mxCell id="O0mWFL73iazBkssLHJQz-13" value="选择验证码类型对应的&lt;br&gt;验证码服务CaptchaService" style="rounded=1;whiteSpace=wrap;html=1;" vertex="1" parent="1">
          <mxGeometry x="640" y="120" width="160" height="60" as="geometry" />
        </mxCell>
        <mxCell id="O0mWFL73iazBkssLHJQz-22" value="" style="edgeStyle=orthogonalEdgeStyle;rounded=0;orthogonalLoop=1;jettySize=auto;html=1;" edge="1" parent="1" source="O0mWFL73iazBkssLHJQz-15" target="O0mWFL73iazBkssLHJQz-21">
          <mxGeometry relative="1" as="geometry" />
        </mxCell>
        <mxCell id="O0mWFL73iazBkssLHJQz-15" value="检查验证次数是否超过限制等" style="whiteSpace=wrap;html=1;rounded=1;" vertex="1" parent="1">
          <mxGeometry x="240" y="220" width="160" height="60" as="geometry" />
        </mxCell>
        <mxCell id="O0mWFL73iazBkssLHJQz-25" value="" style="edgeStyle=orthogonalEdgeStyle;rounded=0;orthogonalLoop=1;jettySize=auto;html=1;" edge="1" parent="1" source="O0mWFL73iazBkssLHJQz-21" target="O0mWFL73iazBkssLHJQz-24">
          <mxGeometry relative="1" as="geometry" />
        </mxCell>
        <mxCell id="O0mWFL73iazBkssLHJQz-26" style="edgeStyle=orthogonalEdgeStyle;rounded=0;orthogonalLoop=1;jettySize=auto;html=1;exitX=1;exitY=0.5;exitDx=0;exitDy=0;fillColor=#d5e8d4;strokeColor=#82b366;" edge="1" parent="1" source="O0mWFL73iazBkssLHJQz-24" target="O0mWFL73iazBkssLHJQz-23">
          <mxGeometry relative="1" as="geometry" />
        </mxCell>
        <mxCell id="O0mWFL73iazBkssLHJQz-21" value="验证码底图和滑块图片生成&lt;br&gt;&lt;font color=&quot;#007fff&quot;&gt;用的java awt 图像库&lt;/font&gt;" style="whiteSpace=wrap;html=1;rounded=1;" vertex="1" parent="1">
          <mxGeometry x="440" y="220" width="160" height="60" as="geometry" />
        </mxCell>
        <mxCell id="O0mWFL73iazBkssLHJQz-23" value="&lt;div&gt;生成的验证码数据：&lt;/div&gt;&lt;div&gt;captcha = {CaptchaVO@7611}&amp;nbsp;&lt;/div&gt;&lt;div&gt;&lt;font color=&quot;#007fff&quot;&gt;&amp;nbsp; //滑块位点的密钥，用于解密用户操作上报的位点数据&lt;/font&gt;&lt;/div&gt;&lt;div&gt;&amp;nbsp;&amp;nbsp;&lt;b&gt;secretKey&lt;/b&gt; = &quot;PtBL1sTupf6FzPdX&quot;&lt;/div&gt;&lt;div&gt;&lt;font color=&quot;#007fff&quot;&gt;&amp;nbsp; //底图Base64编码&lt;/font&gt;&amp;nbsp;&lt;/div&gt;&lt;div&gt;&lt;b&gt;&amp;nbsp; originalImageBase64&lt;/b&gt; = &quot;iVBOR...&quot;&lt;/div&gt;&lt;div&gt;&lt;font color=&quot;#007fff&quot;&gt;&amp;nbsp; //滑块图片Base64编码&lt;/font&gt;&lt;/div&gt;&lt;div&gt;&amp;nbsp;&amp;nbsp;&lt;b&gt;jigsawImageBase64&lt;/b&gt; = &quot;iVBORw...&quot;&lt;/div&gt;&lt;div&gt;&lt;font color=&quot;#007fff&quot;&gt;&amp;nbsp; //这组验证码图片的唯一ID，用于校验时查找滑块位点数据&lt;/font&gt;&lt;/div&gt;&lt;div&gt;&amp;nbsp;&amp;nbsp;&lt;b&gt;token&lt;/b&gt; = &quot;fe85e8755a8844899aba49c45b4bd5c8&quot;&lt;/div&gt;&lt;div&gt;&amp;nbsp; result = {Boolean@6610} false&lt;/div&gt;&lt;div&gt;&amp;nbsp; ... （还有一些其他的字段，提供拓展功能）&lt;/div&gt;" style="text;html=1;align=left;verticalAlign=middle;resizable=0;points=[];autosize=1;strokeColor=none;fillColor=none;" vertex="1" parent="1">
          <mxGeometry x="880" y="55" width="340" height="190" as="geometry" />
        </mxCell>
        <mxCell id="O0mWFL73iazBkssLHJQz-31" value="" style="edgeStyle=orthogonalEdgeStyle;rounded=0;orthogonalLoop=1;jettySize=auto;html=1;fillColor=#d5e8d4;strokeColor=#82b366;" edge="1" parent="1" source="O0mWFL73iazBkssLHJQz-24" target="O0mWFL73iazBkssLHJQz-30">
          <mxGeometry relative="1" as="geometry">
            <Array as="points">
              <mxPoint x="840" y="250" />
            </Array>
          </mxGeometry>
        </mxCell>
        <mxCell id="O0mWFL73iazBkssLHJQz-27" value="&lt;div style=&quot;font-size: 11px;&quot;&gt;&lt;font style=&quot;font-size: 11px;&quot; color=&quot;#007fff&quot;&gt;&lt;span style=&quot;background-color: initial;&quot;&gt;默认captcha-plus只提供了内存作为缓存的实现，&lt;/span&gt;&lt;br&gt;&lt;/font&gt;&lt;/div&gt;&lt;div style=&quot;font-size: 11px;&quot;&gt;&lt;font style=&quot;font-size: 11px;&quot; color=&quot;#007fff&quot;&gt;不过提供了&lt;b style=&quot;&quot;&gt;CaptchaCacheService&lt;/b&gt;接口并支持&lt;b style=&quot;&quot;&gt;SPI&lt;/b&gt;加载，&lt;br&gt;实际可以通过实现此接口将其替换为分布式数据库&lt;/font&gt;&lt;/div&gt;&lt;div style=&quot;font-size: 11px;&quot;&gt;&lt;font style=&quot;font-size: 11px;&quot; color=&quot;#007fff&quot;&gt;&lt;br&gt;&lt;/font&gt;&lt;/div&gt;&lt;div style=&quot;font-size: 11px;&quot;&gt;&lt;font style=&quot;font-size: 11px;&quot; color=&quot;#007fff&quot;&gt;另外内部开启了定时任务，定期检查验证码是否过期，过期就执行清除&lt;/font&gt;&lt;/div&gt;" style="text;html=1;align=left;verticalAlign=middle;resizable=0;points=[];autosize=1;strokeColor=none;fillColor=none;" vertex="1" parent="1">
          <mxGeometry x="880" y="335" width="360" height="80" as="geometry" />
        </mxCell>
        <mxCell id="O0mWFL73iazBkssLHJQz-30" value="public static volatile Map&amp;lt;String, CaptchaCacheService&amp;gt; &lt;b&gt;cacheService&lt;/b&gt; = new HashMap();" style="whiteSpace=wrap;html=1;rounded=1;" vertex="1" parent="1">
          <mxGeometry x="880" y="280" width="200" height="60" as="geometry" />
        </mxCell>
        <mxCell id="O0mWFL73iazBkssLHJQz-33" value="" style="edgeStyle=orthogonalEdgeStyle;rounded=0;orthogonalLoop=1;jettySize=auto;html=1;" edge="1" parent="1" source="O0mWFL73iazBkssLHJQz-34" target="O0mWFL73iazBkssLHJQz-35">
          <mxGeometry relative="1" as="geometry" />
        </mxCell>
        <mxCell id="O0mWFL73iazBkssLHJQz-34" value="从请求头获取用户客户端IP和&lt;br&gt;user-agent 信息&lt;br&gt;（仅用于次数限制校验）" style="rounded=1;whiteSpace=wrap;html=1;" vertex="1" parent="1">
          <mxGeometry x="240" y="500" width="160" height="60" as="geometry" />
        </mxCell>
        <mxCell id="O0mWFL73iazBkssLHJQz-40" style="edgeStyle=orthogonalEdgeStyle;rounded=0;orthogonalLoop=1;jettySize=auto;html=1;exitX=1;exitY=0.5;exitDx=0;exitDy=0;entryX=0;entryY=0.5;entryDx=0;entryDy=0;" edge="1" parent="1" source="O0mWFL73iazBkssLHJQz-35" target="O0mWFL73iazBkssLHJQz-39">
          <mxGeometry relative="1" as="geometry" />
        </mxCell>
        <mxCell id="O0mWFL73iazBkssLHJQz-35" value="从请求传参的获取验证码类型" style="rounded=1;whiteSpace=wrap;html=1;" vertex="1" parent="1">
          <mxGeometry x="440" y="500" width="160" height="60" as="geometry" />
        </mxCell>
        <mxCell id="O0mWFL73iazBkssLHJQz-38" value="" style="edgeStyle=orthogonalEdgeStyle;rounded=0;orthogonalLoop=1;jettySize=auto;html=1;" edge="1" parent="1" source="O0mWFL73iazBkssLHJQz-24" target="O0mWFL73iazBkssLHJQz-37">
          <mxGeometry relative="1" as="geometry">
            <Array as="points">
              <mxPoint x="720" y="300" />
              <mxPoint x="320" y="300" />
            </Array>
          </mxGeometry>
        </mxCell>
        <mxCell id="O0mWFL73iazBkssLHJQz-24" value="将验证码滑块位点保存到&lt;b&gt;缓存&lt;/b&gt;&lt;br&gt;&lt;font color=&quot;#007fff&quot;&gt;token按Redis Key规范格式化后作为缓存的Key&lt;/font&gt;" style="whiteSpace=wrap;html=1;rounded=1;" vertex="1" parent="1">
          <mxGeometry x="640" y="220" width="160" height="60" as="geometry" />
        </mxCell>
        <mxCell id="O0mWFL73iazBkssLHJQz-37" value="返回验证码数据" style="whiteSpace=wrap;html=1;rounded=1;" vertex="1" parent="1">
          <mxGeometry x="240" y="320" width="160" height="60" as="geometry" />
        </mxCell>
        <mxCell id="O0mWFL73iazBkssLHJQz-43" style="edgeStyle=orthogonalEdgeStyle;rounded=0;orthogonalLoop=1;jettySize=auto;html=1;exitX=0.5;exitY=1;exitDx=0;exitDy=0;entryX=0.5;entryY=0;entryDx=0;entryDy=0;" edge="1" parent="1" source="O0mWFL73iazBkssLHJQz-39" target="O0mWFL73iazBkssLHJQz-42">
          <mxGeometry relative="1" as="geometry" />
        </mxCell>
        <mxCell id="O0mWFL73iazBkssLHJQz-39" value="选择验证码类型对应的&lt;br&gt;验证码服务CaptchaService" style="rounded=1;whiteSpace=wrap;html=1;" vertex="1" parent="1">
          <mxGeometry x="640" y="500" width="160" height="60" as="geometry" />
        </mxCell>
        <mxCell id="O0mWFL73iazBkssLHJQz-45" value="" style="edgeStyle=orthogonalEdgeStyle;rounded=0;orthogonalLoop=1;jettySize=auto;html=1;" edge="1" parent="1" source="O0mWFL73iazBkssLHJQz-42" target="O0mWFL73iazBkssLHJQz-44">
          <mxGeometry relative="1" as="geometry" />
        </mxCell>
        <mxCell id="O0mWFL73iazBkssLHJQz-42" value="检查验证次数是否超过限制等" style="whiteSpace=wrap;html=1;rounded=1;" vertex="1" parent="1">
          <mxGeometry x="240" y="600" width="160" height="60" as="geometry" />
        </mxCell>
        <mxCell id="O0mWFL73iazBkssLHJQz-47" value="" style="edgeStyle=orthogonalEdgeStyle;rounded=0;orthogonalLoop=1;jettySize=auto;html=1;" edge="1" parent="1" source="O0mWFL73iazBkssLHJQz-44" target="O0mWFL73iazBkssLHJQz-46">
          <mxGeometry relative="1" as="geometry" />
        </mxCell>
        <mxCell id="O0mWFL73iazBkssLHJQz-44" value="将传参 CaptchaVO 中的token格式化后，查找缓存中对应的验证码&lt;b&gt;滑块位点&lt;/b&gt;" style="whiteSpace=wrap;html=1;rounded=1;" vertex="1" parent="1">
          <mxGeometry x="440" y="600" width="160" height="60" as="geometry" />
        </mxCell>
        <mxCell id="O0mWFL73iazBkssLHJQz-49" value="" style="edgeStyle=orthogonalEdgeStyle;rounded=0;orthogonalLoop=1;jettySize=auto;html=1;" edge="1" parent="1" source="O0mWFL73iazBkssLHJQz-46" target="O0mWFL73iazBkssLHJQz-48">
          <mxGeometry relative="1" as="geometry">
            <Array as="points">
              <mxPoint x="720" y="680" />
              <mxPoint x="320" y="680" />
            </Array>
          </mxGeometry>
        </mxCell>
        <mxCell id="O0mWFL73iazBkssLHJQz-46" value="找到滑块位点后从缓存清除&lt;br&gt;&lt;font color=&quot;#007fff&quot;&gt;即每个验证码只能验证一次&lt;/font&gt;" style="whiteSpace=wrap;html=1;rounded=1;" vertex="1" parent="1">
          <mxGeometry x="640" y="600" width="160" height="60" as="geometry" />
        </mxCell>
        <mxCell id="O0mWFL73iazBkssLHJQz-51" value="" style="edgeStyle=orthogonalEdgeStyle;rounded=0;orthogonalLoop=1;jettySize=auto;html=1;" edge="1" parent="1" source="O0mWFL73iazBkssLHJQz-48" target="O0mWFL73iazBkssLHJQz-50">
          <mxGeometry relative="1" as="geometry" />
        </mxCell>
        <mxCell id="O0mWFL73iazBkssLHJQz-48" value="解密传参中滑块位点数据&lt;br&gt;&lt;font color=&quot;#007fff&quot;&gt;客户端传过来的位点数据是加密了的&lt;/font&gt;" style="whiteSpace=wrap;html=1;rounded=1;" vertex="1" parent="1">
          <mxGeometry x="240" y="700" width="160" height="60" as="geometry" />
        </mxCell>
        <mxCell id="O0mWFL73iazBkssLHJQz-57" value="" style="edgeStyle=orthogonalEdgeStyle;rounded=0;orthogonalLoop=1;jettySize=auto;html=1;" edge="1" parent="1" source="O0mWFL73iazBkssLHJQz-50" target="O0mWFL73iazBkssLHJQz-56">
          <mxGeometry relative="1" as="geometry" />
        </mxCell>
        <mxCell id="O0mWFL73iazBkssLHJQz-50" value="比较上报的位点数据&lt;br&gt;和缓存中存储的位点数据&lt;br&gt;&lt;font color=&quot;#007fff&quot;&gt;横坐标误差不超5个像素，即可&lt;/font&gt;" style="whiteSpace=wrap;html=1;rounded=1;" vertex="1" parent="1">
          <mxGeometry x="440" y="700" width="160" height="60" as="geometry" />
        </mxCell>
        <mxCell id="O0mWFL73iazBkssLHJQz-70" value="" style="edgeStyle=orthogonalEdgeStyle;rounded=0;orthogonalLoop=1;jettySize=auto;html=1;" edge="1" parent="1" source="O0mWFL73iazBkssLHJQz-52" target="O0mWFL73iazBkssLHJQz-69">
          <mxGeometry relative="1" as="geometry" />
        </mxCell>
        <mxCell id="O0mWFL73iazBkssLHJQz-52" value="登录，参数带上拼接的captchaVerification&lt;br&gt;进行二次校验&lt;br&gt;verification()" style="rounded=1;whiteSpace=wrap;html=1;fillColor=#d5e8d4;strokeColor=#82b366;" vertex="1" parent="1">
          <mxGeometry x="40" y="900" width="160" height="60" as="geometry" />
        </mxCell>
        <mxCell id="O0mWFL73iazBkssLHJQz-61" value="N" style="edgeStyle=orthogonalEdgeStyle;rounded=0;orthogonalLoop=1;jettySize=auto;html=1;" edge="1" parent="1" source="O0mWFL73iazBkssLHJQz-56" target="O0mWFL73iazBkssLHJQz-60">
          <mxGeometry relative="1" as="geometry" />
        </mxCell>
        <mxCell id="O0mWFL73iazBkssLHJQz-63" style="edgeStyle=orthogonalEdgeStyle;rounded=0;orthogonalLoop=1;jettySize=auto;html=1;exitX=0.5;exitY=1;exitDx=0;exitDy=0;" edge="1" parent="1" source="O0mWFL73iazBkssLHJQz-56" target="O0mWFL73iazBkssLHJQz-62">
          <mxGeometry relative="1" as="geometry">
            <Array as="points">
              <mxPoint x="720" y="780" />
              <mxPoint x="320" y="780" />
            </Array>
          </mxGeometry>
        </mxCell>
        <mxCell id="O0mWFL73iazBkssLHJQz-64" value="Y" style="edgeLabel;html=1;align=center;verticalAlign=middle;resizable=0;points=[];" vertex="1" connectable="0" parent="O0mWFL73iazBkssLHJQz-63">
          <mxGeometry x="-0.8512" y="-2" relative="1" as="geometry">
            <mxPoint as="offset" />
          </mxGeometry>
        </mxCell>
        <mxCell id="O0mWFL73iazBkssLHJQz-56" value="校验成功？" style="rhombus;whiteSpace=wrap;html=1;rounded=1;" vertex="1" parent="1">
          <mxGeometry x="660" y="690" width="120" height="80" as="geometry" />
        </mxCell>
        <mxCell id="O0mWFL73iazBkssLHJQz-60" value="返回错误信息" style="whiteSpace=wrap;html=1;rounded=1;" vertex="1" parent="1">
          <mxGeometry x="840" y="700" width="160" height="60" as="geometry" />
        </mxCell>
        <mxCell id="O0mWFL73iazBkssLHJQz-66" value="" style="edgeStyle=orthogonalEdgeStyle;rounded=0;orthogonalLoop=1;jettySize=auto;html=1;" edge="1" parent="1" source="O0mWFL73iazBkssLHJQz-62" target="O0mWFL73iazBkssLHJQz-65">
          <mxGeometry relative="1" as="geometry" />
        </mxCell>
        <mxCell id="O0mWFL73iazBkssLHJQz-72" style="edgeStyle=orthogonalEdgeStyle;rounded=0;orthogonalLoop=1;jettySize=auto;html=1;exitX=0.5;exitY=1;exitDx=0;exitDy=0;entryX=0.75;entryY=0;entryDx=0;entryDy=0;" edge="1" parent="1" source="O0mWFL73iazBkssLHJQz-62" target="O0mWFL73iazBkssLHJQz-52">
          <mxGeometry relative="1" as="geometry" />
        </mxCell>
        <mxCell id="O0mWFL73iazBkssLHJQz-73" value="&lt;font color=&quot;#007fff&quot;&gt;客户端也执行相同的拼接操作&lt;/font&gt;" style="edgeLabel;html=1;align=center;verticalAlign=middle;resizable=0;points=[];" vertex="1" connectable="0" parent="O0mWFL73iazBkssLHJQz-72">
          <mxGeometry x="0.44" y="2" relative="1" as="geometry">
            <mxPoint y="-12" as="offset" />
          </mxGeometry>
        </mxCell>
        <mxCell id="O0mWFL73iazBkssLHJQz-62" value="&lt;font style=&quot;font-size: 11px;&quot;&gt;将token与客户端传参中滑块位点json数据使用“---”拼接，然后使用secretKey 进行AES加密&lt;/font&gt;" style="whiteSpace=wrap;html=1;rounded=1;" vertex="1" parent="1">
          <mxGeometry x="240" y="800" width="160" height="60" as="geometry" />
        </mxCell>
        <mxCell id="O0mWFL73iazBkssLHJQz-68" value="" style="edgeStyle=orthogonalEdgeStyle;rounded=0;orthogonalLoop=1;jettySize=auto;html=1;" edge="1" parent="1" source="O0mWFL73iazBkssLHJQz-65" target="O0mWFL73iazBkssLHJQz-67">
          <mxGeometry relative="1" as="geometry" />
        </mxCell>
        <mxCell id="O0mWFL73iazBkssLHJQz-65" value="&lt;font style=&quot;font-size: 11px;&quot;&gt;将前面数据格式化为&lt;br&gt;&amp;nbsp;&quot;RUNNING:CAPTCHA:second-%s&quot;这种格式作为缓存Key&lt;/font&gt;" style="whiteSpace=wrap;html=1;rounded=1;" vertex="1" parent="1">
          <mxGeometry x="440" y="800" width="160" height="60" as="geometry" />
        </mxCell>
        <mxCell id="O0mWFL73iazBkssLHJQz-67" value="&lt;span style=&quot;font-size: 11px;&quot;&gt;缓存Token, Key为前一步格式化的Key&lt;/span&gt;" style="whiteSpace=wrap;html=1;rounded=1;" vertex="1" parent="1">
          <mxGeometry x="640" y="800" width="160" height="60" as="geometry" />
        </mxCell>
        <mxCell id="O0mWFL73iazBkssLHJQz-75" value="" style="edgeStyle=orthogonalEdgeStyle;rounded=0;orthogonalLoop=1;jettySize=auto;html=1;" edge="1" parent="1" source="O0mWFL73iazBkssLHJQz-69" target="O0mWFL73iazBkssLHJQz-74">
          <mxGeometry relative="1" as="geometry" />
        </mxCell>
        <mxCell id="O0mWFL73iazBkssLHJQz-69" value="&lt;div style=&quot;&quot;&gt;从缓存中查找二次校验的&lt;br&gt;&lt;span style=&quot;font-size: 11px;&quot;&gt;captchaVerification，不为空则校验成功，否则失败&lt;/span&gt;&lt;br&gt;&lt;/div&gt;" style="rounded=1;whiteSpace=wrap;html=1;" vertex="1" parent="1">
          <mxGeometry x="240" y="900" width="160" height="60" as="geometry" />
        </mxCell>
        <mxCell id="O0mWFL73iazBkssLHJQz-74" value="&lt;div style=&quot;&quot;&gt;校验不为空再清除一下captchaVerification的缓存&lt;/div&gt;" style="rounded=1;whiteSpace=wrap;html=1;" vertex="1" parent="1">
          <mxGeometry x="440" y="900" width="160" height="60" as="geometry" />
        </mxCell>
      </root>
    </mxGraphModel>
  </diagram>
</mxfile>
